<mxfile host="65bd71144e">
    <diagram id="Pzur21tXkicWES9HNhdy" name="Page-1">
        <mxGraphModel dx="525" dy="482" grid="1" gridSize="10" guides="1" tooltips="1" connect="1" arrows="1" fold="1" page="1" pageScale="1" pageWidth="850" pageHeight="1100" math="0" shadow="0">
            <root>
                <mxCell id="0"/>
                <mxCell id="1" parent="0"/>
                <mxCell id="4" value="" style="edgeStyle=none;html=1;" parent="1" source="2" target="3" edge="1">
                    <mxGeometry relative="1" as="geometry"/>
                </mxCell>
                <mxCell id="2" value="Data" style="rounded=1;html=1;fontStyle=1;strokeColor=#1A1A1A;" parent="1" vertex="1">
                    <mxGeometry x="30" y="390" width="120" height="60" as="geometry"/>
                </mxCell>
                <mxCell id="8" style="edgeStyle=none;html=1;exitX=1;exitY=0.5;exitDx=0;exitDy=0;" parent="1" source="3" edge="1">
                    <mxGeometry relative="1" as="geometry">
                        <mxPoint x="620" y="420" as="targetPoint"/>
                        <Array as="points">
                            <mxPoint x="610" y="400"/>
                        </Array>
                    </mxGeometry>
                </mxCell>
                <mxCell id="3" value="Database" style="whiteSpace=wrap;html=1;rounded=1;" parent="1" vertex="1">
                    <mxGeometry x="330" y="380" width="120" height="60" as="geometry"/>
                </mxCell>
                <mxCell id="11" style="edgeStyle=none;html=1;exitX=0.5;exitY=0;exitDx=0;exitDy=0;" parent="1" source="5" edge="1">
                    <mxGeometry relative="1" as="geometry">
                        <mxPoint x="260.0000000000001" y="410" as="targetPoint"/>
                    </mxGeometry>
                </mxCell>
                <mxCell id="5" value="Pre hooks" style="ellipse;whiteSpace=wrap;html=1;" parent="1" vertex="1">
                    <mxGeometry x="230" y="500" width="100" height="50" as="geometry"/>
                </mxCell>
                <mxCell id="15" style="edgeStyle=none;html=1;exitX=0.5;exitY=0;exitDx=0;exitDy=0;" parent="1" source="6" edge="1">
                    <mxGeometry relative="1" as="geometry">
                        <mxPoint x="490" y="410" as="targetPoint"/>
                    </mxGeometry>
                </mxCell>
                <mxCell id="6" value="Post hooks" style="ellipse;whiteSpace=wrap;html=1;" parent="1" vertex="1">
                    <mxGeometry x="470" y="510" width="75" height="55" as="geometry"/>
                </mxCell>
                <mxCell id="16" value="EX-&lt;br&gt;bcrypt.hash before saving the pass in db" style="ellipse;shape=cloud;whiteSpace=wrap;html=1;" vertex="1" parent="1">
                    <mxGeometry x="180" y="540" width="230" height="100" as="geometry"/>
                </mxCell>
            </root>
        </mxGraphModel>
    </diagram>
</mxfile>